<svg width="294" height="108" viewBox="0 0 294 108" fill="none" xmlns="http://www.w3.org/2000/svg">
<path d="M107.754 26.31C113.181 26.31 117.719 27.5927 121.37 30.158C125.021 32.674 127.315 36.1767 128.252 40.666L116.264 43.108C115.82 40.888 114.784 39.186 113.156 38.002C111.528 36.7687 109.678 36.152 107.606 36.152C105.633 36.152 104.029 36.6453 102.796 37.632C101.563 38.5693 100.946 39.7533 100.946 41.184C100.946 42.2693 101.242 43.1573 101.834 43.848C102.426 44.5387 103.462 45.032 104.942 45.328L115.228 47.622C119.619 48.6087 122.973 50.3107 125.292 52.728C127.66 55.096 128.844 58.204 128.844 62.052C128.844 65.456 127.931 68.3667 126.106 70.784C124.281 73.2013 121.814 75.0267 118.706 76.26C115.598 77.4933 112.169 78.11 108.42 78.11C102.648 78.11 97.7393 76.8027 93.694 74.188C89.698 71.524 87.3793 67.824 86.738 63.088L99.318 60.646C100.502 65.53 103.758 67.972 109.086 67.972C111.355 67.972 113.131 67.5033 114.414 66.566C115.746 65.6287 116.412 64.3953 116.412 62.866C116.412 61.682 116.067 60.7447 115.376 60.054C114.735 59.3633 113.551 58.8453 111.824 58.5L101.464 56.28C97.4187 55.3427 94.1873 53.764 91.77 51.544C89.3527 49.324 88.144 46.1173 88.144 41.924C88.144 38.7667 88.958 36.004 90.586 33.636C92.2633 31.268 94.582 29.4673 97.542 28.234C100.502 26.9513 103.906 26.31 107.754 26.31ZM156.186 38.742C159.442 38.742 162.451 39.5807 165.214 41.258C168.026 42.9353 170.246 45.2787 171.874 48.288C173.502 51.248 174.316 54.6273 174.316 58.426C174.316 62.2247 173.502 65.6287 171.874 68.638C170.246 71.6473 168.026 73.9907 165.214 75.668C162.451 77.296 159.442 78.11 156.186 78.11C151.499 78.11 147.651 76.7533 144.642 74.04V89.58H132.802V39.852H144.642V42.812C147.651 40.0987 151.499 38.742 156.186 38.742ZM153.744 68.046C156.359 68.046 158.505 67.158 160.182 65.382C161.859 63.606 162.698 61.2873 162.698 58.426C162.698 55.614 161.859 53.32 160.182 51.544C158.505 49.7187 156.359 48.806 153.744 48.806C152.116 48.806 150.611 49.2253 149.23 50.064C147.849 50.8533 146.739 51.988 145.9 53.468C145.061 54.948 144.642 56.6007 144.642 58.426C144.642 60.3007 145.061 61.978 145.9 63.458C146.739 64.8887 147.849 66.0233 149.23 66.862C150.611 67.6513 152.116 68.046 153.744 68.046ZM197.445 38.89C201.145 38.89 204.549 39.7287 207.657 41.406C210.765 43.034 213.232 45.328 215.057 48.288C216.882 51.248 217.795 54.6273 217.795 58.426C217.795 62.2247 216.882 65.6287 215.057 68.638C213.232 71.598 210.765 73.9167 207.657 75.594C204.549 77.222 201.145 78.036 197.445 78.036C193.696 78.036 190.242 77.222 187.085 75.594C183.977 73.9167 181.486 71.598 179.611 68.638C177.786 65.6287 176.873 62.2247 176.873 58.426C176.873 54.6273 177.786 51.248 179.611 48.288C181.486 45.328 183.977 43.034 187.085 41.406C190.242 39.7287 193.696 38.89 197.445 38.89ZM197.445 68.046C198.974 68.046 200.43 67.6513 201.811 66.862C203.192 66.0233 204.302 64.8887 205.141 63.458C205.98 61.978 206.399 60.3007 206.399 58.426C206.399 56.5513 205.98 54.8987 205.141 53.468C204.302 51.988 203.192 50.8533 201.811 50.064C200.43 49.2253 198.974 48.806 197.445 48.806C195.817 48.806 194.288 49.2253 192.857 50.064C191.476 50.8533 190.366 51.988 189.527 53.468C188.688 54.8987 188.269 56.5513 188.269 58.426C188.269 60.3007 188.688 61.978 189.527 63.458C190.366 64.938 191.476 66.0727 192.857 66.862C194.288 67.6513 195.817 68.046 197.445 68.046ZM250.321 75.372C248.693 76.26 247.089 76.926 245.511 77.37C243.932 77.8633 242.156 78.11 240.183 78.11C235.496 78.11 231.845 76.852 229.231 74.336C226.665 71.82 225.383 68.1447 225.383 63.31V49.25H218.649V39.852H225.383V28.9H237.223V39.852H248.175V49.25H237.223V62.126C237.223 65.7273 238.875 67.528 242.181 67.528C243.019 67.528 243.932 67.4047 244.919 67.158C245.905 66.862 246.793 66.492 247.583 66.048L250.321 75.372ZM283.444 75.372C281.816 76.26 280.213 76.926 278.634 77.37C277.056 77.8633 275.28 78.11 273.306 78.11C268.62 78.11 264.969 76.852 262.354 74.336C259.789 71.82 258.506 68.1447 258.506 63.31V49.25H251.772V39.852H258.506V28.9H270.346V39.852H281.298V49.25H270.346V62.126C270.346 65.7273 271.999 67.528 275.304 67.528C276.143 67.528 277.056 67.4047 278.042 67.158C279.029 66.862 279.917 66.492 280.706 66.048L283.444 75.372Z" fill="white"/>
<path d="M37.9997 2.33337C18.0047 2.33337 1.83301 18.505 1.83301 38.5C1.83301 65.625 37.9997 105.667 37.9997 105.667C37.9997 105.667 74.1663 65.625 74.1663 38.5C74.1663 18.505 57.9947 2.33337 37.9997 2.33337ZM12.1663 38.5C12.1663 24.24 23.7397 12.6667 37.9997 12.6667C52.2597 12.6667 63.833 24.24 63.833 38.5C63.833 53.38 48.953 75.6484 37.9997 89.5467C27.253 75.7517 12.1663 53.225 12.1663 38.5Z" fill="white"/>
<path d="M37.9997 51.4167C45.1334 51.4167 50.9163 45.6337 50.9163 38.5C50.9163 31.3664 45.1334 25.5834 37.9997 25.5834C30.866 25.5834 25.083 31.3664 25.083 38.5C25.083 45.6337 30.866 51.4167 37.9997 51.4167Z" fill="white"/>
</svg>
